<svg width="44" height="44" viewBox="0 0 44 44" fill="none" xmlns="http://www.w3.org/2000/svg">
<path d="M3.0769 5.46149H9.23075L13.3538 26.0615C13.4945 26.7698 13.8798 27.406 14.4424 27.8589C15.0049 28.3117 15.7087 28.5522 16.4308 28.5384H31.3846C32.1066 28.5522 32.8105 28.3117 33.373 27.8589C33.9355 27.406 34.3208 26.7698 34.4615 26.0615L36.9231 13.1538H10.7692M16.9231 36.2307C16.9231 37.0804 16.2343 37.7692 15.3846 37.7692C14.5349 37.7692 13.8461 37.0804 13.8461 36.2307C13.8461 35.381 14.5349 34.6923 15.3846 34.6923C16.2343 34.6923 16.9231 35.381 16.9231 36.2307ZM33.8461 36.2307C33.8461 37.0804 33.1573 37.7692 32.3077 37.7692C31.458 37.7692 30.7692 37.0804 30.7692 36.2307C30.7692 35.381 31.458 34.6923 32.3077 34.6923C33.1573 34.6923 33.8461 35.381 33.8461 36.2307Z" stroke="#333333" stroke-linecap="round" stroke-linejoin="round"/>
</svg>
